REM DIRINDEX 1\2\6,1\2\7,1\2\8,1\2\9,1\3\10,1\3\11,1\4\12,1\4\13,1\4\14,1\5\15,1\5\16,1\5\17
REM DIRNAME folder01,folder02,folder03,folder04,folder05,folder06,folder07,folder08,folder09,folder10,folder11,folder12,folder13,folder14,folder15,folder16,folder17
TITLE ""
FILE "1900_2_sec09_0851_0868.mp3" MP3
  TRACK 01 AUDIO
    TITLE "0:"
    INDEX 01 00:00:00
  TRACK 02 AUDIO
    TITLE "13:cjc020_3823"
    INDEX 01 00:00:19
  TRACK 03 AUDIO
    TITLE "0:"
    INDEX 01 00:01:48
  TRACK 04 AUDIO
    TITLE "14:cjc020_3824"
    INDEX 01 00:01:50
  TRACK 05 AUDIO
    TITLE "0:"
    INDEX 01 00:05:32
  TRACK 06 AUDIO
    TITLE "13:cjc020_3825"
    INDEX 01 00:06:10
  TRACK 07 AUDIO
    TITLE "0:"
    INDEX 01 00:07:13
  TRACK 08 AUDIO
    TITLE "14:cjc020_3826"
    INDEX 01 00:07:15
  TRACK 09 AUDIO
    TITLE "0:"
    INDEX 01 00:08:32
  TRACK 10 AUDIO
    TITLE "13:cjc020_3827"
    INDEX 01 00:09:04
  TRACK 11 AUDIO
    TITLE "0:"
    INDEX 01 00:10:10
  TRACK 12 AUDIO
    TITLE "14:cjc020_3828"
    INDEX 01 00:10:16
  TRACK 13 AUDIO
    TITLE "0:"
    INDEX 01 00:13:63
  TRACK 14 AUDIO
    TITLE "13:cjc020_3829"
    INDEX 01 00:14:43
  TRACK 15 AUDIO
    TITLE "0:"
    INDEX 01 00:15:44
  TRACK 16 AUDIO
    TITLE "14:cjc020_3830"
    INDEX 01 00:15:46
  TRACK 17 AUDIO
    TITLE "0:"
    INDEX 01 00:18:70
  TRACK 18 AUDIO
    TITLE "13:cjc020_3831"
    INDEX 01 00:19:52
  TRACK 19 AUDIO
    TITLE "0:"
    INDEX 01 00:20:69
  TRACK 20 AUDIO
    TITLE "14:cjc020_3832"
    INDEX 01 00:20:73
  TRACK 21 AUDIO
    TITLE "0:"
    INDEX 01 00:24:51
  TRACK 22 AUDIO
    TITLE "13:cjc020_3833"
    INDEX 01 00:25:31
  TRACK 23 AUDIO
    TITLE "0:"
    INDEX 01 00:26:48
  TRACK 24 AUDIO
    TITLE "14:cjc020_3834"
    INDEX 01 00:26:54
  TRACK 25 AUDIO
    TITLE "0:"
    INDEX 01 00:29:03
  TRACK 26 AUDIO
    TITLE "13:cjc020_3835"
    INDEX 01 00:29:60
  TRACK 27 AUDIO
    TITLE "0:"
    INDEX 01 00:30:57
  TRACK 28 AUDIO
    TITLE "14:cjc020_3836"
    INDEX 01 00:30:59
  TRACK 29 AUDIO
    TITLE "0:"
    INDEX 01 00:32:66
  TRACK 30 AUDIO
    TITLE "13:cjc020_3837"
    INDEX 01 00:33:44
  TRACK 31 AUDIO
    TITLE "0:"
    INDEX 01 00:34:49
  TRACK 32 AUDIO
    TITLE "14:cjc020_3838"
    INDEX 01 00:34:51
  TRACK 33 AUDIO
    TITLE "0:"
    INDEX 01 00:36:33
  TRACK 34 AUDIO
    TITLE "13:cjc020_3839"
    INDEX 01 00:37:12
  TRACK 35 AUDIO
    TITLE "0:"
    INDEX 01 00:38:22
  TRACK 36 AUDIO
    TITLE "14:cjc020_3840"
    INDEX 01 00:38:30
  TRACK 37 AUDIO
    TITLE "0:"
    INDEX 01 00:40:30
  TRACK 38 AUDIO
    TITLE "13:cjc020_3841"
    INDEX 01 00:41:08
  TRACK 39 AUDIO
    TITLE "0:"
    INDEX 01 00:42:35
  TRACK 40 AUDIO
    TITLE "14:cjc020_3842"
    INDEX 01 00:42:37
  TRACK 41 AUDIO
    TITLE "0:"
    INDEX 01 00:44:58
  TRACK 42 AUDIO
    TITLE "13:cjc020_3843"
    INDEX 01 00:45:37
  TRACK 43 AUDIO
    TITLE "0:"
    INDEX 01 00:46:49
  TRACK 44 AUDIO
    TITLE "14:cjc020_3844"
    INDEX 01 00:46:53
  TRACK 45 AUDIO
    TITLE "0:"
    INDEX 01 00:49:23
  TRACK 46 AUDIO
    TITLE "13:cjc020_3845"
    INDEX 01 00:50:03
  TRACK 47 AUDIO
    TITLE "0:"
    INDEX 01 00:51:15
  TRACK 48 AUDIO
    TITLE "14:cjc020_3846"
    INDEX 01 00:51:16
  TRACK 49 AUDIO
    TITLE "0:"
    INDEX 01 00:55:14
  TRACK 50 AUDIO
    TITLE "13:cjc020_3847"
    INDEX 01 00:55:69
  TRACK 51 AUDIO
    TITLE "0:"
    INDEX 01 00:57:13
  TRACK 52 AUDIO
    TITLE "14:cjc020_3848"
    INDEX 01 00:57:15
  TRACK 53 AUDIO
    TITLE "0:"
    INDEX 01 00:59:28
  TRACK 54 AUDIO
    TITLE "13:cjc020_3849"
    INDEX 01 01:00:10
  TRACK 55 AUDIO
    TITLE "0:"
    INDEX 01 01:01:29
  TRACK 56 AUDIO
    TITLE "14:cjc020_3850"
    INDEX 01 01:01:33
  TRACK 57 AUDIO
    TITLE "0:"
    INDEX 01 01:03:63
  TRACK 58 AUDIO
    TITLE "13:cjc020_3851"
    INDEX 01 01:04:43
  TRACK 59 AUDIO
    TITLE "0:"
    INDEX 01 01:05:56
  TRACK 60 AUDIO
    TITLE "14:cjc020_3852"
    INDEX 01 01:05:60
  TRACK 61 AUDIO
    TITLE "0:"
    INDEX 01 01:08:09
  TRACK 62 AUDIO
    TITLE "13:cjc020_3853"
    INDEX 01 01:08:62
  TRACK 63 AUDIO
    TITLE "0:"
    INDEX 01 01:09:54
  TRACK 64 AUDIO
    TITLE "14:cjc020_3854"
    INDEX 01 01:09:61
  TRACK 65 AUDIO
    TITLE "0:"
    INDEX 01 01:12:28
  TRACK 66 AUDIO
    TITLE "13:cjc020_3855"
    INDEX 01 01:13:04
  TRACK 67 AUDIO
    TITLE "0:"
    INDEX 01 01:14:14
  TRACK 68 AUDIO
    TITLE "14:cjc020_3856"
    INDEX 01 01:14:19
  TRACK 69 AUDIO
    TITLE "0:"
    INDEX 01 01:17:08
  TRACK 70 AUDIO
    TITLE "13:cjc020_3857"
    INDEX 01 01:17:59
  TRACK 71 AUDIO
    TITLE "0:"
    INDEX 01 01:18:70
  TRACK 72 AUDIO
    TITLE "14:cjc020_3858"
    INDEX 01 01:18:72
  TRACK 73 AUDIO
    TITLE "0:"
    INDEX 01 01:21:04
